<svg xmlns="http://www.w3.org/2000/svg" viewBox="0 0 50 350"><path d="M24.7 38c.1.1.2.1.3.1s.2 0 .3-.1l10.6-8.6c.1-.1.2-.2.2-.4v-8c0-.2-.1-.3-.2-.4L25.3 12c-.2-.1-.4-.1-.6 0l-10.6 8.6c-.1.1-.2.2-.2.4v8c0 .2.1.3.2.4L24.7 38zm-5.4-12.4l5.2 4.2v6.7L15.2 29l4.1-3.4zM14.9 28v-6l3.6 3-3.6 3zM25 21l4.9 4-4.9 4-4.9-4 4.9-4zm.5 15.6v-6.7l5.2-4.2 4.1 3.4-9.3 7.5zm6-11.6l3.6-3v6l-3.6-3zm-.8-.6l-5.2-4.2v-6.7l9.3 7.6-4.1 3.3zm-6.2-11v6.7l-5.2 4.2-4.1-3.3 9.3-7.6zM41.7 320.5l-16.6-2.6h-.2l-16.6 2.6c-.2 0-.4.2-.4.5v8c0 .2.2.5.4.5l16.6 2.6h.2l16.6-2.6c.2 0 .4-.2.4-.5v-8c0-.2-.2-.5-.4-.5zm-32.8 1.1l15.6 2.4v1.9l-15.6 2.4v-6.7zm16.6 2.4l15.6-2.4v6.8L25.5 326v-2zm0-1v-4l12.9 2-12.9 2zm-1-4v4l-12.9-2 12.9-2zm0 8v4l-12.9-2 12.9-2zm1 4v-4l12.9 2-12.9 2zM9.3 279.5l15.6 3.6h.2l15.6-3.6c.2-.1.4-.3.4-.5v-8c0-.2-.2-.4-.4-.5l-15.6-3.6h-.2l-15.6 3.6c-.2.1-.4.3-.4.5v8c0 .2.2.4.4.5zm.6-7.9l14.6 3.4-14.6 3.4v-6.8zm30.2 6.8L25.5 275l14.6-3.4v6.8zM24.5 276v6l-12.9-3 12.9-3zm1 6v-6l12.9 3-12.9 3zm0-8v-6l12.9 3-12.9 3zm-1-6v6l-12.9-3 12.9-3zM24.7 87c.1.1.2.1.3.1s.2 0 .3-.1l11.6-7.6c.1-.1.2-.2.2-.4v-8c0-.2-.1-.3-.2-.4L25.3 63c-.2-.1-.4-.1-.5 0l-11.6 7.6c-.1.1-.2.2-.2.4v8c0 .2.1.3.2.4L24.7 87zm-5.2-11.4l5 3.3v6.8L14.3 79l5.2-3.4zm-5.6 2.5V72l4.7 3.1-4.7 3zM25 72l4.6 3-4.6 3-4.6-3 4.6-3zm.5 13.7v-6.8l5-3.3 5.2 3.4-10.2 6.7zM31.4 75l4.7-3.1V78l-4.7-3zm-.9-.6l-5-3.3v-6.8L35.7 71l-5.2 3.4zm-6-10.1v6.8l-5 3.3-5.2-3.4 10.2-6.7zM12.2 129.4l12.6 6.6c.1 0 .2.1.2.1s.2 0 .2-.1l12.6-6.6c.2-.1.3-.3.3-.4v-8c0-.2-.1-.4-.3-.4L25.2 114c-.1-.1-.3-.1-.5 0l-12.6 6.6c-.2.1-.3.3-.3.4v8c.1.2.2.4.4.4zm.7-7.6L19 125l-6.1 3.2v-6.4zm7.1 3.8l4.5 2.3v6.9l-11-5.8 6.5-3.4zm5-2.6l3.9 2-3.9 2-3.9-2 3.9-2zm.5 11.8v-6.9l4.5-2.3 6.6 3.4-11.1 5.8zm11.6-6.6L31 125l6.1-3.2v6.4zm-7.1-3.8l-4.5-2.3v-6.9l11 5.8-6.5 3.4zm-5.5-9.2v6.9l-4.5 2.3-6.6-3.4 11.1-5.8zM11.2 179.5l13.6 5.6h.4l13.6-5.6c.2-.1.3-.3.3-.5v-8c0-.2-.1-.4-.3-.5l-13.6-5.6h-.4l-13.6 5.6c-.2.1-.3.3-.3.5v8c0 .2.1.4.3.5zm.7-7.8l7.9 3.3-7.9 3.3v-6.6zm9.2 3.8l3.4 1.4v6.9L12.7 179l8.4-3.5zm3.9-1.6l2.6 1.1-2.6 1.1-2.6-1.1 2.6-1.1zm.5 10V177l3.4-1.4 8.4 3.5-11.8 4.8zm12.6-5.6l-7.9-3.3 7.9-3.3v6.6zm-9.2-3.8l-3.4-1.4v-6.9l11.8 4.9-8.4 3.4zm-4.4-8.4v6.9l-3.4 1.4-8.4-3.5 11.8-4.8zM10.2 229.5l14.6 4.6h.4l14.6-4.6c.2-.1.3-.3.3-.5v-8c0-.2-.1-.4-.3-.5l-14.6-4.6h-.3l-14.6 4.6c-.2.1-.3.3-.3.5v8c-.1.2 0 .4.2.5zm.7-7.8l10.5 3.3-10.5 3.3v-6.6zm12.2 3.8l1.4.4v7L12.1 229l11-3.5zm1.9-.6l.3.1-.3.1-.3-.1.3-.1zm.5 8v-7l1.4-.4 11 3.5-12.4 3.9zm13.6-4.6L28.6 225l10.5-3.3v6.6zm-12.2-3.8l-1.4-.4v-7l12.4 3.9-11 3.5zm-2.4-7.4v7l-1.4.4-11-3.5 12.4-3.9z"/></svg>