<svg viewBox="0 0 30.21 426.21">
  <path d="M24.69,38a.5.5,0,0,0,.63,0l10.61-8.61a.5.5,0,0,0,.18-.39V21a.5.5,0,0,0-.18-.39L25.31,12a.5.5,0,0,0-.63,0L14.08,20.61a.5.5,0,0,0-.19.39v8a.5.5,0,0,0,.19.39ZM19.32,25.64l5.18,4.2v6.71L15.19,29ZM14.89,28V22l3.64,3ZM25,21l4.88,4L25,29l-4.88-4Zm.5,15.52V29.84l5.18-4.2L34.81,29Zm6-11.56,3.64-3V28Zm-.79-.64-5.18-4.2V13.44L34.81,21ZM24.5,13.44v6.71l-5.18,4.2L15.19,21Z" transform="translate(-9.89 -11.89)"/>
  <path d="M24.73,87a.5.5,0,0,0,.55,0l11.61-7.61a.5.5,0,0,0,.23-.42V71a.5.5,0,0,0-.23-.42L25.27,63a.5.5,0,0,0-.55,0L13.12,70.58a.5.5,0,0,0-.23.42v8a.5.5,0,0,0,.23.42ZM19.5,75.6l5,3.28v6.8L14.31,79Zm-5.6,2.48V71.93L18.59,75ZM25,72l4.59,3L25,78l-4.59-3Zm.5,13.69v-6.8l5-3.28L35.69,79ZM31.41,75l4.69-3.07v6.15Zm-.91-.6-5-3.28v-6.8L35.69,71Zm-6-10.08v6.8l-5,3.28L14.31,71Z" transform="translate(-9.89 -11.89)"/>
  <path d="M12.16,129.44,24.77,136a.5.5,0,0,0,.46,0l12.61-6.61a.5.5,0,0,0,.27-.44v-8a.5.5,0,0,0-.27-.44L25.23,114a.5.5,0,0,0-.46,0l-12.61,6.61a.5.5,0,0,0-.27.44v8A.5.5,0,0,0,12.16,129.44Zm.73-7.62L18.95,125l-6.06,3.17ZM20,125.56l4.47,2.34v6.87l-11-5.78ZM25,123l3.9,2L25,127l-3.9-2Zm.5,11.82v-6.87L30,125.56,36.53,129Zm11.61-6.61L31.05,125l6.06-3.17ZM30,124.44l-4.47-2.34v-6.87l11,5.78Zm-5.47-9.22v6.87L20,124.44,13.47,121Z" transform="translate(-9.89 -11.89)"/>
  <path d="M11.2,179.46l13.61,5.61a.5.5,0,0,0,.38,0l13.61-5.61a.5.5,0,0,0,.31-.46v-8a.5.5,0,0,0-.31-.46l-13.61-5.61a.5.5,0,0,0-.38,0L11.2,170.54a.5.5,0,0,0-.31.46v8A.5.5,0,0,0,11.2,179.46Zm.69-7.72,7.9,3.25-7.9,3.25Zm9.21,3.79,3.4,1.4v6.92L12.71,179Zm3.9-1.61L27.59,175,25,176.07,22.41,175Zm.5,9.92v-6.92l3.4-1.4,8.4,3.46Zm12.61-5.61L30.21,175l7.9-3.25Zm-9.21-3.79-3.4-1.4v-6.92L37.29,171Zm-4.4-8.32v6.92l-3.4,1.4L12.71,171Z" transform="translate(-9.89 -11.89)"/>
  <path d="M25.31,412a.5.5,0,0,0-.63,0l-10.61,8.61a.5.5,0,0,0-.19.39v8a.5.5,0,0,0,.19.39L24.69,438a.5.5,0,0,0,.63,0l10.61-8.61a.5.5,0,0,0,.18-.39v-8a.5.5,0,0,0-.18-.39Zm5.36,12.35-5.18-4.2v-6.71L34.81,421Zm4.43-2.31v5.9L31.47,425ZM25,429l-4.88-4L25,421l4.88,4Zm-.5-15.52v6.71l-5.18,4.2L15.19,421Zm-6,11.56-3.64,3V422Zm.79.64,5.18,4.2v6.71L15.19,429Zm6.18,10.91v-6.71l5.18-4.2L34.81,429Z" transform="translate(-9.89 -11.89)"/>
  <path d="M25.27,363a.5.5,0,0,0-.55,0l-11.61,7.61a.5.5,0,0,0-.23.42v8a.5.5,0,0,0,.23.42L24.73,387a.5.5,0,0,0,.55,0l11.61-7.61a.5.5,0,0,0,.23-.42v-8a.5.5,0,0,0-.23-.42ZM30.5,374.4l-5-3.28v-6.8L35.69,371Zm5.6-2.48v6.15L31.41,375ZM25,378l-4.59-3L25,372l4.59,3Zm-.5-13.69v6.8l-5,3.28L14.31,371ZM18.59,375l-4.69,3.07v-6.15Zm.91.6,5,3.28v6.8L14.31,379Zm6,10.08v-6.8l5-3.28,5.19,3.4Z" transform="translate(-9.89 -11.89)"/>
  <path d="M37.84,320.56,25.23,314a.5.5,0,0,0-.46,0l-12.61,6.61a.5.5,0,0,0-.27.44v8a.5.5,0,0,0,.27.44L24.77,336a.5.5,0,0,0,.46,0l12.61-6.61a.5.5,0,0,0,.27-.44v-8A.5.5,0,0,0,37.84,320.56Zm-.73,7.62L31.05,325l6.06-3.17ZM30,324.44l-4.47-2.34v-6.87l11,5.78ZM25,327l-3.9-2,3.9-2,3.9,2Zm-.5-11.82v6.87L20,324.44,13.47,321Zm-11.61,6.61L18.95,325l-6.06,3.17ZM20,325.56l4.47,2.34v6.87l-11-5.78Zm5.47,9.22v-6.87L30,325.56,36.53,329Z" transform="translate(-9.89 -11.89)"/>
  <path d="M38.8,270.54l-13.61-5.61a.5.5,0,0,0-.38,0L11.2,270.54a.5.5,0,0,0-.31.46v8a.5.5,0,0,0,.31.46l13.61,5.61a.5.5,0,0,0,.38,0l13.61-5.61a.5.5,0,0,0,.31-.46v-8A.5.5,0,0,0,38.8,270.54Zm-.69,7.72L30.21,275l7.9-3.25Zm-9.21-3.79-3.4-1.4v-6.92L37.29,271ZM25,276.07,22.41,275,25,273.93,27.59,275Zm-.5-9.92v6.92l-3.4,1.4L12.71,271Zm-12.61,5.61,7.9,3.25-7.9,3.25Zm9.21,3.79,3.4,1.4v6.92L12.71,279Zm4.4,8.32v-6.92l3.4-1.4,8.4,3.46Z" transform="translate(-9.89 -11.89)"/>
  <path d="M39.76,220.52l-14.61-4.61a.51.51,0,0,0-.3,0l-14.61,4.61a.5.5,0,0,0-.35.48v8a.5.5,0,0,0,.35.48l14.61,4.61.15,0,.15,0,14.61-4.61a.5.5,0,0,0,.35-.48v-8A.5.5,0,0,0,39.76,220.52Zm-.65,7.79L28.59,225l10.52-3.32Zm-12.18-3.84L25.5,224v-7L37.94,221Zm-1.92.61-.26-.08.26-.08.26.08Zm-.5-8v7l-1.42.45-11-3.48Zm-13.61,4.61L21.41,225l-10.52,3.32Zm12.18,3.84,1.42.45v7L12.06,229Zm2.42,7.4v-7l1.42-.45,11,3.48Z" transform="translate(-9.89 -11.89)"/>
</svg>