<?xml version="1.0" encoding="utf-8"?>
<!-- Generator: Adobe Illustrator 20.1.0, SVG Export Plug-In . SVG Version: 6.00 Build 0)  -->
<svg version="1.1" id="Layer_1" xmlns="http://www.w3.org/2000/svg" xmlns:xlink="http://www.w3.org/1999/xlink" x="0px" y="0px"
	 viewBox="0 0 30.2 426.2" style="enable-background:new 0 0 30.2 426.2;" xml:space="preserve">
<path d="M14.8,26.1c0.2,0.1,0.4,0.1,0.6,0L26,17.5c0.1-0.1,0.2-0.2,0.2-0.4v-8c0-0.2-0.1-0.3-0.2-0.4L15.4,0.1C15.2,0,15,0,14.8,0.1
	L4.2,8.7C4.1,8.8,4,9,4,9.1v8c0,0.2,0.1,0.3,0.2,0.4L14.8,26.1z M9.4,13.7l5.2,4.2v6.7l-9.3-7.5L9.4,13.7z M5,16.1v-6l3.6,3L5,16.1z
	 M15.1,9.1l4.9,4l-4.9,4l-4.9-4L15.1,9.1z M15.6,24.6V18l5.2-4.2l4.1,3.4L15.6,24.6z M21.6,13.1l3.6-3v6L21.6,13.1z M20.8,12.4
	l-5.2-4.2V1.5l9.3,7.6L20.8,12.4z M14.6,1.5v6.7l-5.2,4.2L5.3,9.1L14.6,1.5z"/>
<path d="M14.8,75.1c0.2,0.1,0.4,0.1,0.5,0L27,67.5c0.1-0.1,0.2-0.2,0.2-0.4v-8c0-0.2-0.1-0.3-0.2-0.4l-11.6-7.6
	c-0.2-0.1-0.4-0.1-0.5,0L3.2,58.7C3.1,58.8,3,58.9,3,59.1v8c0,0.2,0.1,0.3,0.2,0.4L14.8,75.1z M9.6,63.7l5,3.3v6.8L4.4,67.1
	L9.6,63.7z M4,66.2V60l4.7,3.1L4,66.2z M15.1,60.1l4.6,3l-4.6,3l-4.6-3L15.1,60.1z M15.6,73.8V67l5-3.3l5.2,3.4L15.6,73.8z
	 M21.5,63.1l4.7-3.1v6.2L21.5,63.1z M20.6,62.5l-5-3.3v-6.8l10.2,6.7L20.6,62.5z M14.6,52.4v6.8l-5,3.3l-5.2-3.4L14.6,52.4z"/>
<path d="M2.3,117.6l12.6,6.6c0.1,0.1,0.3,0.1,0.5,0l12.6-6.6c0.2-0.1,0.3-0.3,0.3-0.4v-8c0-0.2-0.1-0.4-0.3-0.4l-12.6-6.5
	c-0.1-0.1-0.3-0.1-0.5,0l-12.6,6.6C2.1,108.8,2,109,2,109.2v8C2,117.3,2.1,117.5,2.3,117.6z M3,109.9l6.1,3.2L3,116.3L3,109.9z
	 M10.1,113.7l4.5,2.3v6.9l-11-5.8L10.1,113.7z M15.1,111.1l3.9,2l-3.9,2l-3.9-2L15.1,111.1z M15.6,122.9v-6.9l4.5-2.4l6.5,3.4
	L15.6,122.9z M27.2,116.3l-6.1-3.2l6.1-3.2V116.3z M20.1,112.6l-4.5-2.3v-6.9l11,5.8L20.1,112.6z M14.6,103.3v6.9l-4.5,2.3l-6.5-3.4
	L14.6,103.3z"/>
<path d="M1.3,167.6l13.6,5.6c0.1,0.1,0.3,0.1,0.4,0l13.6-5.6c0.2-0.1,0.3-0.3,0.3-0.5v-8c0-0.2-0.1-0.4-0.3-0.5L15.3,153
	c-0.1-0.1-0.3-0.1-0.4,0l-13.6,5.6c-0.2,0.1-0.3,0.3-0.3,0.5v8C1,167.3,1.1,167.5,1.3,167.6z M2,159.9l7.9,3.2L2,166.4V159.9z
	 M11.2,163.6l3.4,1.4v6.9l-11.8-4.8L11.2,163.6z M15.1,162l2.6,1.1l-2.6,1.1l-2.6-1.1L15.1,162z M15.6,171.9V165l3.4-1.4l8.4,3.5
	L15.6,171.9z M28.2,166.3l-7.9-3.2l7.9-3.2L28.2,166.3z M19,162.6l-3.4-1.4v-6.9l11.8,4.9L19,162.6z M14.6,154.2v6.9l-3.4,1.4
	l-8.4-3.4L14.6,154.2z"/>
<path d="M15.4,400.1c-0.2-0.1-0.4-0.1-0.6,0l-10.6,8.6C4.1,408.8,4,409,4,409.1v8c0,0.2,0.1,0.3,0.2,0.4l10.6,8.6
	c0.2,0.1,0.4,0.1,0.6,0l10.6-8.6c0.1-0.1,0.2-0.2,0.2-0.4v-8c0-0.2-0.1-0.3-0.2-0.4L15.4,400.1z M20.8,412.5l-5.2-4.2v-6.7l9.3,7.6
	L20.8,412.5z M25.2,410.1v5.9l-3.6-2.9L25.2,410.1z M15.1,417.1l-4.9-4l4.9-4l4.9,4L15.1,417.1z M14.6,401.6v6.7l-5.2,4.2l-4.1-3.4
	L14.6,401.6z M8.6,413.1l-3.6,3v-6L8.6,413.1z M9.4,413.8l5.2,4.2v6.7l-9.3-7.6L9.4,413.8z M15.6,424.7V418l5.2-4.2l4.2,3.3
	L15.6,424.7z"/>
<path d="M15.4,351.1c-0.2-0.1-0.4-0.1-0.5,0l-11.6,7.6C3.1,358.8,3,359,3,359.1v8c0,0.2,0.1,0.3,0.2,0.4l11.6,7.5
	c0.2,0.1,0.4,0.1,0.5,0l11.6-7.6c0.1-0.1,0.2-0.2,0.2-0.4v-8c0-0.2-0.1-0.3-0.2-0.4L15.4,351.1z M20.6,362.5l-5-3.3v-6.8l10.2,6.7
	L20.6,362.5z M26.2,360v6.1l-4.7-3.1L26.2,360z M15.1,366.1l-4.6-3l4.6-3l4.6,3L15.1,366.1z M14.6,352.4v6.8l-5,3.3l-5.2-3.4
	L14.6,352.4z M8.7,363.1L4,366.2V360L8.7,363.1z M9.6,363.7l5,3.3v6.8l-10.2-6.7L9.6,363.7z M15.6,373.8V367l5-3.3l5.2,3.4
	L15.6,373.8z"/>
<path d="M28,308.7l-12.6-6.6c-0.1-0.1-0.3-0.1-0.5,0l-12.6,6.6C2.1,308.8,2,309,2,309.2v8c0,0.2,0.1,0.4,0.3,0.4l12.6,6.5
	c0.1,0.1,0.3,0.1,0.5,0l12.6-6.6c0.2-0.1,0.3-0.3,0.3-0.4v-8C28.2,308.9,28.1,308.7,28,308.7z M27.2,316.3l-6.1-3.2l6.1-3.2V316.3z
	 M20.1,312.5l-4.5-2.3v-6.9l11,5.8L20.1,312.5z M15.1,315.1l-3.9-2l3.9-2l3.9,2L15.1,315.1z M14.6,303.3v6.9l-4.5,2.4l-6.5-3.4
	L14.6,303.3z M3,309.9l6.1,3.2L3,316.3L3,309.9z M10.1,313.7l4.5,2.3v6.9l-11-5.8L10.1,313.7z M15.6,322.9V316l4.5-2.4l6.5,3.4
	L15.6,322.9z"/>
<path d="M28.9,258.6L15.3,253c-0.1-0.1-0.3-0.1-0.4,0l-13.6,5.6c-0.2,0.1-0.3,0.3-0.3,0.5v8c0,0.2,0.1,0.4,0.3,0.5l13.6,5.6
	c0.1,0.1,0.3,0.1,0.4,0l13.6-5.6c0.2-0.1,0.3-0.3,0.3-0.5v-8C29.2,258.9,29.1,258.7,28.9,258.6z M28.2,266.4l-7.9-3.3l7.9-3.2V266.4
	z M19,262.6l-3.4-1.4v-6.9l11.8,4.8L19,262.6z M15.1,264.2l-2.6-1.1l2.6-1.1l2.6,1.1L15.1,264.2z M14.6,254.3v6.9l-3.4,1.4l-8.4-3.5
	L14.6,254.3z M2,259.9l7.9,3.2L2,266.4L2,259.9z M11.2,263.7l3.4,1.4v6.9l-11.8-4.9L11.2,263.7z M15.6,272v-6.9l3.4-1.4l8.4,3.5
	L15.6,272z"/>
<path d="M29.9,208.6L15.3,204c-0.1,0-0.2,0-0.3,0l-14.6,4.6c-0.2,0.1-0.4,0.3-0.4,0.5v8c0,0.2,0.1,0.4,0.4,0.5l14.6,4.6h0.1h0.1
	l14.6-4.6c0.2-0.1,0.4-0.3,0.3-0.5v-8C30.2,208.9,30.1,208.7,29.9,208.6z M29.2,216.4l-10.5-3.3l10.5-3.3L29.2,216.4z M17,212.6
	l-1.4-0.5v-7l12.4,4L17,212.6z M15.1,213.2l-0.3-0.1l0.3-0.1l0.3,0.1L15.1,213.2z M14.6,205.2v7l-1.4,0.4l-11-3.5L14.6,205.2z
	 M1,209.8l10.5,3.3L1,216.4L1,209.8z M13.2,213.6l1.4,0.4v7l-12.4-4L13.2,213.6z M15.6,221v-7l1.4-0.4l11,3.5L15.6,221z"/>
</svg>
